# xmcd
#
# Track frame offsets:
#      150
#      17017
#      32648
#      50178
#      63691
#      81096
#      97312
#      115273
#      131869
#      149401
#
# Disc length: 2161 seconds
#
# Revision: 0
# Processed by: cddbd v1.4PL0 Copyright (c) Steve Scherf et al.
# Submitted via: SoundClick v1.0
#
DISCID=98086f0a
DTITLE=tribute to waylon and Harlan - charlie craig
DYEAR=1900
DGENRE=
TTITLE0=Half Past Forever
TTITLE1=Dallas Didnt Do It
TTITLE2=Walk Upon Water
TTITLE3=Aint Even Started Loving Me Yet
TTITLE4=Everything But Lying
TTITLE5=Peaks And Valleys
TTITLE6=How Long
TTITLE7=It Was Me
TTITLE8=Small Town
TTITLE9=Everybody Falls
EXTD=
EXTT0=
EXTT1=
EXTT2=
EXTT3=
EXTT4=
EXTT5=
EXTT6=
EXTT7=
EXTT8=
EXTT9=
PLAYORDER=
